<?xml version="1.0" encoding="iso-8859-1"?>
<!-- Uploaded to: SVG Repo, www.svgrepo.com, Generator: SVG Repo Mixer Tools -->
<svg height="800px" width="800px" version="1.1" id="Layer_1" xmlns="http://www.w3.org/2000/svg" xmlns:xlink="http://www.w3.org/1999/xlink" 
	 viewBox="0 0 512 512" xml:space="preserve">
<g transform="translate(1 1)">
	<path style="fill:#00DA6C;" d="M297.667,50.2c0,23.893-18.773,42.667-42.667,42.667S212.333,74.093,212.333,50.2
		S231.107,7.533,255,7.533S297.667,26.307,297.667,50.2"/>
	<path style="fill:#00AD55;" d="M255,7.533c-2.56,0-5.973,0-8.533,0.853C266.093,12.653,280.6,29.72,280.6,50.2
		s-14.507,37.547-34.133,41.813c2.56,0.853,5.973,0.853,8.533,0.853c23.893,0,42.667-18.773,42.667-42.667S278.893,7.533,255,7.533"
		/>
	<path style="fill:#FFFFFF;" d="M255,7.533c2.56,0,5.973,0,8.533,0.853C243.907,12.653,229.4,29.72,229.4,50.2
		s14.507,37.547,34.133,41.813c-2.56,0.853-5.973,0.853-8.533,0.853c-23.893,0-42.667-18.773-42.667-42.667S231.107,7.533,255,7.533
		"/>
	<path style="fill:#FFE100;" d="M255,92.867c-127.147,0-213.333,137.387-213.333,307.2h426.667
		C468.333,230.253,382.147,92.867,255,92.867"/>
	<path style="fill:#FFA800;" d="M255,92.867c-4.267,0-8.533,0-12.8,0.853c120.32,8.533,200.533,142.507,200.533,306.347h25.6
		C468.333,230.253,382.147,92.867,255,92.867"/>
	<path style="fill:#FFE100;" d="M468.333,502.467H41.667c-18.773,0-34.133-15.36-34.133-34.133V434.2
		c0-18.773,15.36-34.133,34.133-34.133h426.667c18.773,0,34.133,15.36,34.133,34.133v34.133
		C502.467,487.107,487.107,502.467,468.333,502.467"/>
	<path style="fill:#FFA800;" d="M468.333,400.067h-25.6c18.773,0,34.133,15.36,34.133,34.133v34.133
		c0,18.773-15.36,34.133-34.133,34.133h25.6c18.773,0,34.133-15.36,34.133-34.133V434.2
		C502.467,415.427,487.107,400.067,468.333,400.067"/>
	<g>
		<path style="fill:#FFFFFF;" d="M255,92.867c4.267,0,8.533,0,12.8,0.853C147.48,102.253,67.267,236.227,67.267,400.067h-25.6
			C41.667,230.253,127.853,92.867,255,92.867"/>
		<path style="fill:#FFFFFF;" d="M41.667,400.067h25.6c-18.773,0-34.133,15.36-34.133,34.133v34.133
			c0,18.773,15.36,34.133,34.133,34.133h-25.6c-18.773,0-34.133-15.36-34.133-34.133V434.2
			C7.533,415.427,22.893,400.067,41.667,400.067"/>
	</g>
	<g>
		<polygon style="fill:#00DA6C;" points="203.8,314.733 152.6,365.933 101.4,314.733 152.6,263.533 		"/>
		<polygon style="fill:#00DA6C;" points="306.2,314.733 255,365.933 203.8,314.733 255,263.533 		"/>
		<polygon style="fill:#00DA6C;" points="408.6,314.733 357.4,365.933 306.2,314.733 357.4,263.533 		"/>
	</g>
	<polygon style="fill:#00AD55;" points="357.4,263.533 344.6,276.333 383,314.733 344.6,353.133 357.4,365.933 408.6,314.733 	"/>
	<path d="M468.333,511H41.667C17.773,511-1,492.227-1,468.333V434.2c0-23.893,18.773-42.667,42.667-42.667h426.667
		c23.893,0,42.667,18.773,42.667,42.667v34.133C511,492.227,492.227,511,468.333,511z M41.667,408.6
		c-14.507,0-25.6,11.093-25.6,25.6v34.133c0,14.507,11.093,25.6,25.6,25.6h426.667c14.507,0,25.6-11.093,25.6-25.6V434.2
		c0-14.507-11.093-25.6-25.6-25.6H41.667z"/>
	<path d="M468.333,408.6H41.667c-5.12,0-8.533-3.413-8.533-8.533c0-182.613,93.013-315.733,221.867-315.733
		s221.867,133.12,221.867,315.733C476.867,405.187,473.453,408.6,468.333,408.6z M50.2,391.533h409.6
		C457.24,225.133,370.2,101.4,255,101.4S52.76,225.133,50.2,391.533z"/>
	<path d="M255,101.4c-28.16,0-51.2-23.04-51.2-51.2S226.84-1,255-1s51.2,23.04,51.2,51.2S283.16,101.4,255,101.4z M255,16.067
		c-18.773,0-34.133,15.36-34.133,34.133S236.227,84.333,255,84.333s34.133-15.36,34.133-34.133S273.773,16.067,255,16.067z"/>
	<path d="M152.6,374.467c-2.56,0-4.267-0.853-5.973-2.56l-51.2-51.2c-3.413-3.413-3.413-8.533,0-11.947l51.2-51.2
		c3.413-3.413,8.533-3.413,11.947,0l51.2,51.2c3.413,3.413,3.413,8.533,0,11.947l-51.2,51.2
		C156.867,373.613,155.16,374.467,152.6,374.467z M113.347,314.733l39.253,39.253l39.253-39.253L152.6,275.48L113.347,314.733z"/>
	<path d="M255,374.467c-2.56,0-4.267-0.853-5.973-2.56l-51.2-51.2c-3.413-3.413-3.413-8.533,0-11.947l51.2-51.2
		c3.413-3.413,8.533-3.413,11.947,0l51.2,51.2c3.413,3.413,3.413,8.533,0,11.947l-51.2,51.2
		C259.267,373.613,257.56,374.467,255,374.467z M215.747,314.733L255,353.987l39.253-39.253L255,275.48L215.747,314.733z"/>
	<path d="M357.4,374.467c-2.56,0-4.267-0.853-5.973-2.56l-51.2-51.2c-3.413-3.413-3.413-8.533,0-11.947l51.2-51.2
		c3.413-3.413,8.533-3.413,11.947,0l51.2,51.2c3.413,3.413,3.413,8.533,0,11.947l-51.2,51.2
		C361.667,373.613,359.96,374.467,357.4,374.467z M318.147,314.733l39.253,39.253l39.253-39.253L357.4,275.48L318.147,314.733z"/>
	<path d="M144.067,195.267h-46.08c-5.12,0-8.533-3.413-8.533-8.533c0-5.12,3.413-8.533,8.533-8.533h46.08
		c5.12,0,8.533,3.413,8.533,8.533C152.6,191.853,149.187,195.267,144.067,195.267z"/>
	<path d="M169.667,161.133H124.44c-5.12,0-8.533-3.413-8.533-8.533c0-5.12,3.413-8.533,8.533-8.533h45.227
		c5.12,0,8.533,3.413,8.533,8.533C178.2,157.72,174.787,161.133,169.667,161.133z"/>
</g>
</svg>